<svg width="54" height="54" viewBox="0 0 54 54" fill="none" xmlns="http://www.w3.org/2000/svg">
<rect width="54" height="54" rx="13" fill="#EEECFC"/>
<path fill-rule="evenodd" clip-rule="evenodd" d="M35.7828 31.3147L35.0134 25.1201C34.5446 22.9096 33.218 22 31.9532 22H21.791C20.5086 22 19.1377 22.846 18.7397 25.1201L17.9614 31.3147C17.3246 35.8629 19.6684 37 22.7285 37H31.0246C34.0759 37 36.3489 35.3535 35.7828 31.3147ZM23.958 27.1486C23.4695 27.1486 23.0735 26.7413 23.0735 26.2389C23.0735 25.7366 23.4695 25.3293 23.958 25.3293C24.4465 25.3293 24.8425 25.7366 24.8425 26.2389C24.8425 26.7413 24.4465 27.1486 23.958 27.1486ZM28.8667 26.2389C28.8667 26.7413 29.2627 27.1486 29.7511 27.1486C30.2395 27.1486 30.6355 26.7413 30.6355 26.2389C30.6355 25.7366 30.2395 25.3293 29.7511 25.3293C29.2627 25.3293 28.8667 25.7366 28.8667 26.2389Z" fill="#837F88"/>
<path opacity="0.4" d="M31.8406 21.7743C31.8437 21.8519 31.8288 21.9291 31.797 22H30.3588C30.331 21.9279 30.3162 21.8515 30.3152 21.7743C30.3152 19.8568 28.7543 18.3024 26.8288 18.3024C24.9032 18.3024 23.3423 19.8568 23.3423 21.7743C23.3555 21.849 23.3555 21.9253 23.3423 22H21.8693C21.8561 21.9253 21.8561 21.849 21.8693 21.7743C21.9812 19.1059 24.1861 17 26.868 17C29.5499 17 31.7548 19.1059 31.8667 21.7743H31.8406Z" fill="#837F88"/>
</svg>
